<svg version="1.1" id="logo" xmlns="http://www.w3.org/2000/svg" xmlns:xlink="http://www.w3.org/1999/xlink" x="0px" y="0px"
	 width="100%" viewBox="0 0 768 768" enable-background="new 0 0 768 768" xml:space="preserve">
<path fill="currentColor" opacity="1.000000" stroke="none" 
	d="
M400.756958,203.221268 
	C463.455261,255.535767 525.879211,307.625031 588.310974,359.704865 
	C593.325867,363.888245 593.358887,363.864319 589.325500,368.895813 
	C586.825256,372.014740 584.130005,374.993500 581.832092,378.253540 
	C579.857483,381.054901 578.079895,381.382568 575.344482,379.240387 
	C571.413818,376.162231 567.251038,373.377991 563.152100,370.518799 
	C561.842834,369.605499 560.421631,368.852692 559.013916,368.003662 
	C557.750366,370.103638 558.208801,371.970551 558.206848,373.737427 
	C558.149536,424.722046 556.878601,475.699646 557.347412,526.687683 
	C557.449890,537.832825 553.932495,541.291748 542.699524,541.294189 
	C438.554108,541.316956 334.408722,541.317566 230.263306,541.293518 
	C219.629181,541.291077 216.462616,537.833496 216.479065,527.011597 
	C216.557129,475.689209 216.599442,424.366730 216.612671,373.044312 
	C216.613174,371.114624 217.084167,369.082977 215.764709,366.654144 
	C209.941910,370.938660 204.128464,374.983490 198.597809,379.383759 
	C195.819275,381.594452 194.053528,381.188416 191.980118,378.608734 
	C189.059860,374.975403 186.025009,371.416229 182.811356,368.042358 
	C180.258789,365.362518 180.477661,363.715424 183.422607,361.279114 
	C208.965851,340.147827 234.361572,318.838257 259.809296,297.591431 
	C299.836945,264.171600 339.875946,230.765411 379.897217,197.337921 
	C386.681000,191.671799 386.661316,191.622925 393.590210,197.215637 
	C395.923065,199.098618 398.188416,201.065231 400.756958,203.221268 
M404.499969,517.707092 
	C444.987854,517.710022 485.475739,517.723572 525.963623,517.708130 
	C535.595093,517.704468 534.676147,518.574036 534.685608,509.243713 
	C534.734985,460.424835 534.735718,411.605957 534.767456,362.787079 
	C534.778076,346.482513 534.799438,346.479980 522.562927,335.695160 
	C480.180847,298.341309 435.847137,263.351776 392.011383,227.756226 
	C388.159607,224.628525 385.671478,224.620438 381.880676,227.786301 
	C364.756897,242.087173 347.334259,256.029327 330.116547,270.218750 
	C300.809631,294.371094 272.302002,319.448456 244.080948,344.854980 
	C242.234741,346.516998 241.345169,348.373413 241.287750,350.937225 
	C240.713440,376.575409 239.784821,402.207947 239.450943,427.848541 
	C239.090820,455.503052 239.252350,483.164459 239.202438,510.822845 
	C239.190079,517.670471 239.218704,517.696411 246.046478,517.697632 
	C298.530975,517.706726 351.015442,517.704956 404.499969,517.707092 
z"/>
<path fill="currentColor" opacity="1.000000" stroke="none" 
	d="
M261.437592,603.194336 
	C260.566040,595.265930 261.506927,587.783630 261.603516,580.296753 
	C261.646393,576.969604 266.415741,575.369446 270.633698,577.509521 
	C272.232758,578.320801 273.269318,578.877625 275.090210,578.098145 
	C281.498627,575.354858 287.445984,576.278442 292.833618,581.186523 
	C296.808350,578.800049 300.716248,576.377014 305.703186,576.628540 
	C313.378693,577.015747 318.808563,581.659485 319.218475,589.250610 
	C319.559387,595.562866 319.246643,601.908386 319.323975,608.237854 
	C319.374390,612.365662 316.450104,612.051880 313.793335,612.070496 
	C311.225616,612.088501 308.627991,612.077026 308.687042,608.320862 
	C308.757751,603.824158 308.713593,599.324585 308.658112,594.827087 
	C308.583679,588.790283 306.795349,586.272949 302.669220,586.263794 
	C298.256439,586.254089 296.155304,588.882629 295.989777,594.911743 
	C295.875488,599.073364 295.853943,603.244324 295.993927,607.404297 
	C296.139832,611.740601 293.485779,612.161072 290.130920,612.135010 
	C286.843994,612.109497 284.649017,611.336975 284.782776,607.381897 
	C284.946014,602.556763 284.804840,597.720764 284.772705,592.889587 
	C284.747192,589.048035 283.281433,586.320923 279.010590,586.307556 
	C274.784332,586.294250 272.517334,588.681458 272.358063,592.808411 
	C272.178253,597.466736 272.017242,602.153198 272.325867,606.795593 
	C272.648743,611.653625 270.001068,612.129272 266.165192,612.181274 
	C261.990143,612.237915 260.870239,610.354675 261.494690,606.621277 
	C261.656860,605.651611 261.492950,604.627502 261.437592,603.194336 
z"/>
<path fill="currentColor" opacity="1.000000" stroke="none" 
	d="
M173.187195,566.789246 
	C181.259537,566.802185 181.219559,566.802551 181.293320,574.492126 
	C181.391541,584.732605 179.828293,583.924072 191.048981,583.979736 
	C191.381592,583.981384 191.714218,583.980713 192.046829,583.980591 
	C199.892899,583.977722 199.892731,583.977722 199.920853,576.012451 
	C199.924362,575.014648 199.918808,574.016541 199.937729,573.019043 
	C200.046249,567.293823 204.254303,564.711731 209.556839,567.015564 
	C211.363953,567.800659 211.303894,569.289612 211.306366,570.754089 
	C211.327499,583.227051 211.258560,595.700317 211.332062,608.172791 
	C211.356094,612.250854 208.616531,612.100403 205.896179,612.089417 
	C203.075592,612.078064 199.907837,612.507263 199.940506,608.135742 
	C199.960388,605.475098 199.745636,602.796997 199.979141,600.157104 
	C200.366547,595.777283 198.918091,593.938171 194.171280,593.943787 
	C181.460892,593.958862 181.299469,593.764465 181.359558,606.351501 
	C181.380157,610.665222 180.024841,612.257751 175.653152,612.215820 
	C171.517838,612.176086 169.616058,611.090088 169.710999,606.551086 
	C169.950943,595.080872 169.767532,583.602173 169.805313,572.127075 
	C169.812683,569.888367 169.241638,567.201843 173.187195,566.789246 
z"/>
<path fill="currentColor" opacity="1.000000" stroke="none" 
	d="
M588.946167,577.401367 
	C594.019226,576.028320 598.537720,576.535522 603.779785,579.176880 
	C603.779785,575.174255 603.923279,571.777527 603.743469,568.397949 
	C603.517761,564.153992 606.247253,564.016113 609.281616,564.000366 
	C612.331360,563.984497 615.009766,564.190491 614.983643,568.336548 
	C614.901855,581.310852 614.986694,594.286438 614.854370,607.259949 
	C614.809570,611.649231 609.493042,614.274170 605.413391,611.537964 
	C603.580139,610.308350 602.713745,610.252563 600.884277,610.984802 
	C591.457275,614.757568 581.766724,610.670837 578.228638,601.607910 
	C574.273438,591.476501 578.597290,581.396423 588.946167,577.401367 
M590.873352,587.455078 
	C587.631714,591.464050 586.993774,597.018738 589.653137,600.169312 
	C592.116394,603.087463 595.264099,604.217712 598.985352,602.639832 
	C602.975098,600.948059 604.712708,596.839600 603.664673,591.757080 
	C602.578064,586.487244 597.659119,584.588257 590.873352,587.455078 
z"/>
<path fill="currentColor" opacity="1.000000" stroke="none" 
	d="
M429.761078,596.504517 
	C431.497498,588.365356 430.327637,580.525391 430.611725,572.734192 
	C430.811096,567.266479 434.224640,564.994019 439.414368,566.977417 
	C441.261383,567.683350 441.296387,569.124146 441.298248,570.614075 
	C441.308777,578.934265 441.621033,587.272766 441.176086,595.569946 
	C440.608826,606.148865 432.406616,612.564636 420.432587,612.456970 
	C409.100250,612.355042 401.344818,605.630859 400.799957,594.808777 
	C400.398804,586.840942 400.794739,578.836060 400.652496,570.850891 
	C400.581726,566.877319 403.035278,566.734070 405.915375,566.758789 
	C408.810059,566.783691 411.846863,566.445312 411.878448,570.730164 
	C411.934906,578.383301 411.797485,586.045410 412.131714,593.686707 
	C412.434052,600.598999 416.287018,603.577698 422.966736,602.715088 
	C426.505554,602.258118 428.663300,600.250488 429.761078,596.504517 
z"/>
<path fill="currentColor" opacity="1.000000" stroke="none" 
	d="
M358.195465,583.992615 
	C359.100220,585.811584 359.972748,587.256592 360.469971,588.820862 
	C362.796356,596.139404 361.591187,597.759827 354.102264,597.722168 
	C348.378784,597.693359 342.655060,597.716431 336.498260,597.716431 
	C339.489624,603.630676 343.980255,605.173767 349.843567,602.228088 
	C353.236847,600.523193 354.910278,601.582031 356.915131,604.062317 
	C358.638000,606.193665 358.053223,607.515320 356.186798,609.035095 
	C350.487000,613.676270 338.460144,613.448303 331.731598,608.480957 
	C325.097748,603.583435 322.905273,594.766479 326.392639,587.010132 
	C331.901917,574.756836 348.715820,572.981384 358.195465,583.992615 
M348.394714,586.824341 
	C342.380890,583.853088 338.958771,584.717957 336.650604,590.038452 
	C340.495605,591.609436 344.497986,590.870605 348.341949,590.683533 
	C351.415314,590.533936 349.958191,588.661255 348.394714,586.824341 
z"/>
<path fill="currentColor" opacity="1.000000" stroke="none" 
	d="
M544.925415,579.706543 
	C556.034180,573.932922 567.334045,576.822876 571.878235,586.275818 
	C572.984985,588.578125 573.282532,591.004395 573.517395,593.509705 
	C573.834473,596.891602 572.381165,597.883484 569.171936,597.768250 
	C562.450684,597.527100 555.742920,598.363342 548.536194,597.304688 
	C551.454102,603.413879 556.629150,605.409546 562.197815,602.334717 
	C566.644836,599.879272 568.605774,602.430481 569.996521,605.315063 
	C571.551880,608.540894 568.119934,609.468445 566.089966,610.464783 
	C553.918213,616.438965 539.434814,609.635071 537.374573,596.884705 
	C536.242737,589.879822 539.047058,584.230591 544.925415,579.706543 
M561.999939,588.032898 
	C556.419861,583.369507 550.443726,584.403015 549.194397,590.407349 
	C553.101440,591.268311 557.051514,590.699402 560.967773,590.787903 
	C562.512939,590.822876 563.050354,590.022339 561.999939,588.032898 
z"/>
<path fill="currentColor" opacity="1.000000" stroke="none" 
	d="
M219.344131,602.230225 
	C215.965759,592.945007 218.124268,584.645325 224.827454,580.059631 
	C232.149765,575.050415 243.484329,575.596375 249.947815,581.309509 
	C255.596405,586.302307 256.527527,592.841248 254.856598,599.576172 
	C253.093063,606.684387 247.773224,610.640442 240.713776,612.056091 
	C231.838318,613.835938 224.421082,610.427307 219.344131,602.230225 
M242.908722,588.742432 
	C239.943253,585.661621 236.582825,584.505066 232.633286,586.798828 
	C229.203857,588.790527 228.034027,592.015503 228.501358,595.728699 
	C228.977081,599.508423 231.071259,602.146729 234.981735,603.034302 
	C238.027252,603.725647 240.674591,602.873596 242.604431,600.536926 
	C245.468948,597.068420 245.314423,593.226807 242.908722,588.742432 
z"/>
<path fill="currentColor" opacity="1.000000" stroke="none" 
	d="
M485.307800,591.306885 
	C485.310913,597.097168 485.153625,602.427490 485.349915,607.744873 
	C485.508728,612.047302 482.767059,612.042480 479.780731,612.095459 
	C476.808136,612.148132 474.514343,611.721069 474.656921,607.845886 
	C474.828064,603.193481 474.769226,598.526611 474.637512,593.870911 
	C474.525726,589.920532 473.486450,586.541138 468.598969,586.284241 
	C463.884521,586.036438 461.287354,588.559387 460.845490,592.928894 
	C460.362274,597.707886 460.282959,602.555542 460.426361,607.361328 
	C460.542725,611.261963 458.667084,612.153870 455.257324,612.151672 
	C451.755768,612.149414 449.545929,611.463928 449.657104,607.218140 
	C449.866150,599.236511 449.705292,591.245422 449.720245,583.258301 
	C449.731506,577.241638 453.609528,574.539429 458.976929,577.562012 
	C461.395691,578.924072 462.835022,578.372437 464.823517,577.697632 
	C475.692383,574.008850 483.989105,579.348999 485.307800,591.306885 
z"/>
<path fill="currentColor" opacity="1.000000" stroke="none" 
	d="
M382.755554,603.356750 
	C385.934540,600.566467 383.537781,599.893921 381.533081,599.382507 
	C378.316803,598.562012 374.991211,598.150879 371.802094,597.247803 
	C367.826233,596.122009 365.061584,593.668823 364.688721,589.243469 
	C364.298981,584.617981 366.094482,580.986206 370.229187,578.941162 
	C377.037476,575.573669 384.058044,576.004944 391.081116,578.431396 
	C393.330414,579.208557 393.937836,580.642517 392.798645,582.658691 
	C391.771820,584.476135 391.788666,587.809509 388.260742,586.549561 
	C385.218231,585.463013 382.161102,584.953613 378.960999,585.287659 
	C377.428497,585.447632 375.742737,585.718933 375.637970,587.600830 
	C375.543701,589.293335 377.147614,589.577393 378.450134,589.870300 
	C381.364380,590.525513 384.312286,591.044922 387.202240,591.790955 
	C391.613281,592.929810 394.749420,595.576965 395.156342,600.291748 
	C395.581146,605.213806 392.816711,608.555664 388.512817,610.414001 
	C381.230927,613.557983 373.894470,612.831177 366.668274,610.025391 
	C364.472137,609.172546 363.404724,607.755188 364.801208,605.387146 
	C365.920990,603.488281 366.354431,600.586609 369.717224,601.966736 
	C373.814911,603.648621 378.026398,604.283936 382.755554,603.356750 
z"/>
<path fill="currentColor" opacity="1.000000" stroke="none" 
	d="
M518.052734,569.695557 
	C522.127502,569.357666 524.869568,569.955139 524.361084,574.623962 
	C524.097778,577.041992 525.684021,577.821533 527.821350,577.711548 
	C530.807495,577.557922 532.460144,578.508362 532.431824,581.924377 
	C532.405579,585.087036 531.319763,586.606873 528.075317,586.327026 
	C525.274231,586.085388 524.180786,587.460388 524.304321,590.189087 
	C524.416748,592.675598 524.370178,595.172791 524.305359,597.662964 
	C524.201904,601.635498 525.269043,604.259827 530.053284,603.294067 
	C533.659241,602.566223 533.368713,605.842896 534.158997,607.733704 
	C535.113281,610.016846 533.493530,611.101074 531.555176,611.640686 
	C520.727356,614.655334 512.839783,608.465637 513.599976,599.492981 
	C513.837463,596.690063 513.564697,593.847290 513.620605,591.024658 
	C513.669739,588.541809 513.594482,586.404846 510.243073,586.113342 
	C508.055542,585.922974 508.055511,583.894348 508.070679,582.231262 
	C508.087158,580.419495 507.975006,578.183716 510.394318,577.914917 
	C513.402954,577.580688 513.796814,575.756531 513.648682,573.398132 
	C513.468811,570.536438 514.958313,569.527649 518.052734,569.695557 
z"/>
<path fill="currentColor" opacity="1.000000" stroke="none" 
	d="
M496.233154,577.016968 
	C504.245026,576.782166 504.261627,576.782166 504.275085,584.173706 
	C504.289001,591.824829 504.102692,599.480774 504.324921,607.125244 
	C504.445770,611.281860 502.464325,612.149170 498.855957,612.160095 
	C495.130707,612.171387 493.419220,611.028015 493.533051,606.982849 
	C493.766846,598.672852 493.573608,590.351562 493.636993,582.035522 
	C493.651398,580.151367 493.066925,577.862671 496.233154,577.016968 
z"/>
<path fill="currentColor" opacity="1.000000" stroke="none" 
	d="
M504.431702,570.114014 
	C503.871887,570.829834 503.581207,571.253784 503.197357,571.561462 
	C500.156738,573.998718 497.043121,573.973206 494.157867,571.434143 
	C491.820190,569.376953 491.671265,566.773132 493.393097,564.244812 
	C495.404205,561.291870 498.438110,561.061218 501.417847,562.146179 
	C504.980835,563.443665 506.091827,566.157532 504.431702,570.114014 
z"/>
<path fill="currentColor" opacity="1.000000" stroke="none" 
	d="
M432.055786,482.914856 
	C449.542358,482.882355 466.540131,482.745483 483.535309,482.895691 
	C487.703461,482.932526 489.209015,482.039764 489.176178,477.378693 
	C488.873260,434.388306 488.867767,391.395844 488.792664,348.403931 
	C488.789795,346.762695 488.958710,345.121124 489.056915,343.307770 
	C493.297119,343.056824 495.729095,345.968903 498.405457,347.887054 
	C508.256256,354.946869 513.622681,364.644073 513.248840,376.869354 
	C512.245361,409.682953 512.208862,442.500641 512.394409,475.321320 
	C512.441467,483.646973 512.658752,491.975159 512.993103,500.294312 
	C513.165833,504.592560 511.977997,506.493774 507.110657,506.466309 
	C474.284607,506.280914 441.456818,506.410950 408.629608,506.400726 
	C400.513550,506.398193 397.955505,503.733673 397.944122,495.575989 
	C397.839874,420.923828 397.728119,346.271637 397.653748,271.619446 
	C397.651459,269.341125 397.107086,266.959106 398.319061,264.799347 
	C407.972504,265.066223 418.341705,274.502075 421.093445,285.687744 
	C421.762970,288.409332 422.173706,291.283051 422.131653,294.078186 
	C421.298767,349.392578 421.264923,404.710327 421.377350,460.028442 
	C421.388489,465.516449 422.209351,471.015015 422.026031,476.487640 
	C421.859985,481.443512 423.439606,483.735443 428.570007,482.945282 
	C429.546997,482.794800 430.566223,482.918854 432.055786,482.914856 
z"/>
<path fill="currentColor" opacity="1.000000" stroke="none" 
	d="
M375.227417,377.000000 
	C375.230591,417.662567 375.237091,457.825134 375.232544,497.987701 
	C375.231689,505.353973 375.211029,505.356598 367.734802,505.364075 
	C364.401825,505.367432 361.054626,505.162903 357.739502,505.404419 
	C353.732300,505.696259 352.592407,503.978119 352.616943,500.146210 
	C352.748291,479.649170 352.548462,459.149506 352.762177,438.653870 
	C352.810974,433.973236 351.592163,432.221161 346.648865,432.285248 
	C327.820618,432.529449 308.985718,432.513977 290.157043,432.285889 
	C285.414215,432.228455 284.245758,433.958435 284.286163,438.414703 
	C284.470581,458.744202 284.237885,479.077606 284.437988,499.406799 
	C284.482819,503.962372 283.127106,505.742035 278.496460,505.386475 
	C274.188354,505.055695 269.835236,505.243073 265.503632,505.311584 
	C262.758545,505.355011 261.496002,504.135498 261.644470,501.408081 
	C261.671600,500.910065 261.631866,500.408630 261.628784,499.908722 
	C261.371399,458.252106 261.052795,416.595734 260.889465,374.938751 
	C260.828033,359.271088 267.860840,349.819763 283.170410,344.341492 
	C285.011230,345.868958 284.239990,348.016296 284.247559,349.872925 
	C284.315613,366.537598 284.410553,383.204193 284.203857,399.866547 
	C284.151306,404.103333 285.188324,405.747040 289.744171,405.691711 
	C308.406189,405.465027 327.073639,405.484711 345.736450,405.675690 
	C350.236572,405.721741 351.938904,404.429962 351.775635,399.720734 
	C351.308197,386.237030 351.408020,372.733521 351.302979,359.243988 
	C351.118958,335.614319 350.873901,311.941193 353.684937,288.398468 
	C354.965637,277.672302 364.956451,266.340271 375.226959,264.662262 
	C375.226959,302.033875 375.226959,339.266937 375.227417,377.000000 
z"/>
</svg>